<svg width="289" height="102" viewBox="0 0 289 102" fill="none" xmlns="http://www.w3.org/2000/svg">
<circle cx="47.5" cy="55.5" r="45" stroke="white" stroke-width="3"/>
<circle cx="3.5" cy="45.5" r="3.5" fill="#FF5C00"/>
<ellipse cx="68" cy="94.5" rx="8" ry="7.5" fill="#FF5C00"/>
<circle cx="86" cy="33" r="3" fill="#FF5C00"/>
<path d="M81.2 55.5C81.2 75.2377 65.6435 91.2 46.5 91.2C27.3565 91.2 11.8 75.2377 11.8 55.5C11.8 35.7623 27.3565 19.8 46.5 19.8C65.6435 19.8 81.2 35.7623 81.2 55.5Z" stroke="white" stroke-width="1.6"/>
<circle cx="21.5" cy="32.5" r="5.5" fill="#FF5C00"/>
<circle cx="64.5" cy="25.5" r="3.5" fill="#FF5C00"/>
<ellipse cx="47" cy="55.5" rx="13" ry="12.5" fill="#FF5C00"/>
<circle cx="47.5" cy="55.5" r="23.75" stroke="white" stroke-width="3.5"/>
<circle cx="25" cy="63" r="3" fill="#FF5C00"/>
<circle cx="71.5" cy="55.5" r="4.5" fill="#FF5C00"/>
<path d="M144.195 52C143.625 50.29 142.86 48.145 141.9 45.565H127.545L125.295 52H114L126.6 19.33H143.16L155.85 52H144.195ZM139.335 38.545C138.195 35.395 137.025 32.245 135.825 29.095L134.745 26.17C133.695 28.9 132.15 33.025 130.11 38.545H139.335Z" fill="#FF5C00"/>
<path d="M172.786 52.45C170.266 52.45 167.701 52.105 165.091 51.415C162.511 50.695 160.081 49.615 157.801 48.175L162.526 41.74C163.906 42.73 165.571 43.51 167.521 44.08C169.471 44.62 171.151 44.89 172.561 44.89C173.911 44.89 174.946 44.71 175.666 44.35C176.416 43.96 176.791 43.465 176.791 42.865C176.791 42.385 176.611 42.01 176.251 41.74C175.891 41.47 175.396 41.335 174.766 41.335C174.376 41.335 173.926 41.35 173.416 41.38C172.936 41.41 172.546 41.44 172.246 41.47C170.686 41.65 169.081 41.74 167.431 41.74C164.761 41.74 162.586 41.245 160.906 40.255C159.256 39.235 158.431 37.585 158.431 35.305C158.431 32.665 159.676 30.625 162.166 29.185C164.656 27.715 168.316 26.98 173.146 26.98C175.516 26.98 177.901 27.325 180.301 28.015C182.731 28.675 184.876 29.68 186.736 31.03L181.561 36.25C179.851 35.35 178.246 34.72 176.746 34.36C175.276 33.97 173.791 33.775 172.291 33.775C171.241 33.775 170.341 33.985 169.591 34.405C168.841 34.825 168.466 35.305 168.466 35.845C168.466 36.265 168.616 36.595 168.916 36.835C169.246 37.075 169.666 37.195 170.176 37.195C170.686 37.195 171.391 37.15 172.291 37.06C174.481 36.91 176.116 36.835 177.196 36.835C180.316 36.835 182.731 37.36 184.441 38.41C186.151 39.46 187.006 41.065 187.006 43.225C187.006 46.465 185.746 48.82 183.226 50.29C180.706 51.73 177.226 52.45 172.786 52.45ZM209.662 35.485C206.902 35.305 204.382 35.17 202.102 35.08L202.057 39.85C202.057 41.47 202.402 42.745 203.092 43.675C203.812 44.575 205.072 45.025 206.872 45.025C207.562 45.025 208.222 44.965 208.852 44.845C208.732 45.955 208.672 47.08 208.672 48.22C208.672 48.76 208.702 49.99 208.762 51.91C207.442 52.15 206.332 52.3 205.432 52.36C204.532 52.42 203.362 52.45 201.922 52.45C198.412 52.45 195.922 51.61 194.452 49.93C193.012 48.22 192.292 45.85 192.292 42.82L192.337 35.215C190.927 35.275 189.457 35.365 187.927 35.485V27.52C189.487 27.52 190.807 27.025 191.887 26.035C192.967 25.045 193.612 23.86 193.822 22.48H206.062C204.532 24.58 202.837 26.26 200.977 27.52H209.662V35.485ZM222.788 34.09C224.048 29.56 227.183 27.295 232.193 27.295C233.063 27.295 233.903 27.355 234.713 27.475L233.273 37.555C231.113 36.745 229.343 36.34 227.963 36.34C226.253 36.34 224.993 36.85 224.183 37.87C223.373 38.89 222.968 40.255 222.968 41.965V41.92L222.923 44.89C222.923 47.02 222.983 49.39 223.103 52H212.348C212.588 47.68 212.708 43.6 212.708 39.76C212.708 35.92 212.588 31.81 212.348 27.43C214.328 27.52 215.843 27.565 216.893 27.565C218.003 27.565 219.518 27.52 221.438 27.43L222.788 34.09ZM251.447 52.45C246.317 52.45 242.537 51.28 240.107 48.94C237.707 46.57 236.507 43.465 236.507 39.625C236.507 35.875 237.707 32.83 240.107 30.49C242.537 28.15 246.317 26.98 251.447 26.98C254.897 26.98 257.777 27.55 260.087 28.69C262.427 29.8 264.152 31.315 265.262 33.235C266.372 35.125 266.927 37.255 266.927 39.625C266.927 43.495 265.637 46.6 263.057 48.94C260.507 51.28 256.637 52.45 251.447 52.45ZM251.627 44.8C253.577 44.8 255.032 44.335 255.992 43.405C256.952 42.475 257.432 41.23 257.432 39.67C257.432 38.2 256.952 37 255.992 36.07C255.032 35.11 253.577 34.63 251.627 34.63C249.677 34.63 248.252 35.095 247.352 36.025C246.452 36.955 246.002 38.17 246.002 39.67C246.002 41.23 246.452 42.475 247.352 43.405C248.252 44.335 249.677 44.8 251.627 44.8Z" fill="white"/>
<path d="M130.2 61.835C135.84 61.835 140.295 62.525 143.565 63.905C146.835 65.255 149.115 67.145 150.405 69.575C151.725 71.975 152.385 74.93 152.385 78.44C152.385 81.77 151.635 84.68 150.135 87.17C148.635 89.66 146.385 91.595 143.385 92.975C140.385 94.325 136.695 95 132.315 95C129.645 95 126.93 95 124.17 95C121.41 95 118.62 94.985 115.8 94.955C116.04 89.045 116.16 83.54 116.16 78.44C116.16 73.28 116.04 67.895 115.8 62.285C119.37 61.985 124.17 61.835 130.2 61.835ZM133.575 86.045C136.365 86.045 138.225 85.37 139.155 84.02C140.085 82.67 140.55 80.81 140.55 78.44C140.55 76.16 140.055 74.315 139.065 72.905C138.105 71.495 136.275 70.79 133.575 70.79C130.665 70.79 128.49 70.88 127.05 71.06V86.045H133.575Z" fill="#FF5C00"/>
<path d="M173.516 95C173.696 90.59 173.786 86.525 173.786 82.805C173.786 81.485 173.456 80.435 172.796 79.655C172.166 78.875 171.356 78.485 170.366 78.485C169.316 78.485 168.416 78.995 167.666 80.015C166.946 81.035 166.586 82.43 166.586 84.2L166.541 84.11C166.541 89 166.601 92.63 166.721 95H155.966C156.206 90.68 156.326 84.83 156.326 77.45C156.326 70.07 156.206 64.22 155.966 59.9H166.676L166.721 73.76L166.676 76.145C167.396 74.045 168.461 72.5 169.871 71.51C171.311 70.49 172.931 69.98 174.731 69.98C176.531 69.98 178.091 70.385 179.411 71.195C180.731 71.975 181.721 73.04 182.381 74.39C183.071 75.74 183.416 77.255 183.416 78.935V85.415C183.416 89.405 183.491 92.6 183.641 95H173.516ZM216.1 87.53C216.1 88.55 216.22 89.27 216.46 89.69C216.7 90.11 217.18 90.41 217.9 90.59L217.72 94.82C216.76 94.97 215.92 95.075 215.2 95.135C214.51 95.195 213.58 95.225 212.41 95.225C209.83 95.225 208.12 94.655 207.28 93.515C206.44 92.345 206.02 90.86 206.02 89.06V87.935C205.15 90.395 203.875 92.225 202.195 93.425C200.545 94.625 198.43 95.225 195.85 95.225C192.85 95.225 190.585 94.625 189.055 93.425C187.555 92.225 186.805 90.44 186.805 88.07C186.805 86.12 187.45 84.59 188.74 83.48C190.03 82.37 192.025 81.605 194.725 81.185C192.445 79.565 190.165 78.155 187.885 76.955C189.685 74.675 191.74 72.95 194.05 71.78C196.36 70.58 199.165 69.98 202.465 69.98C207.085 69.98 210.505 70.985 212.725 72.995C214.975 74.975 216.1 78.035 216.1 82.175V87.53ZM203.41 77.9C201.88 77.9 200.53 78.155 199.36 78.665C198.19 79.175 197.14 79.94 196.21 80.96C198.01 80.75 200.26 80.645 202.96 80.645C204.07 80.645 204.85 80.51 205.3 80.24C205.75 79.97 205.975 79.625 205.975 79.205C205.975 78.845 205.75 78.545 205.3 78.305C204.85 78.035 204.22 77.9 203.41 77.9ZM198.685 87.89C200.365 87.89 201.88 87.575 203.23 86.945C204.58 86.285 205.51 85.43 206.02 84.38V83.21C205.3 83.57 204.505 83.855 203.635 84.065C202.765 84.245 201.715 84.425 200.485 84.605L198.865 84.875C197.185 85.205 196.345 85.775 196.345 86.585C196.345 87.455 197.125 87.89 198.685 87.89ZM231.05 77.09C232.31 72.56 235.445 70.295 240.455 70.295C241.325 70.295 242.165 70.355 242.975 70.475L241.535 80.555C239.375 79.745 237.605 79.34 236.225 79.34C234.515 79.34 233.255 79.85 232.445 80.87C231.635 81.89 231.23 83.255 231.23 84.965V84.92L231.185 87.89C231.185 90.02 231.245 92.39 231.365 95H220.61C220.85 90.68 220.97 86.6 220.97 82.76C220.97 78.92 220.85 74.81 220.61 70.43C222.59 70.52 224.105 70.565 225.155 70.565C226.265 70.565 227.78 70.52 229.7 70.43L231.05 77.09ZM272.746 87.53C272.746 88.55 272.866 89.27 273.106 89.69C273.346 90.11 273.826 90.41 274.546 90.59L274.366 94.82C273.406 94.97 272.566 95.075 271.846 95.135C271.156 95.195 270.226 95.225 269.056 95.225C266.476 95.225 264.766 94.655 263.926 93.515C263.086 92.345 262.666 90.86 262.666 89.06V87.935C261.796 90.395 260.521 92.225 258.841 93.425C257.191 94.625 255.076 95.225 252.496 95.225C249.496 95.225 247.231 94.625 245.701 93.425C244.201 92.225 243.451 90.44 243.451 88.07C243.451 86.12 244.096 84.59 245.386 83.48C246.676 82.37 248.671 81.605 251.371 81.185C249.091 79.565 246.811 78.155 244.531 76.955C246.331 74.675 248.386 72.95 250.696 71.78C253.006 70.58 255.811 69.98 259.111 69.98C263.731 69.98 267.151 70.985 269.371 72.995C271.621 74.975 272.746 78.035 272.746 82.175V87.53ZM260.056 77.9C258.526 77.9 257.176 78.155 256.006 78.665C254.836 79.175 253.786 79.94 252.856 80.96C254.656 80.75 256.906 80.645 259.606 80.645C260.716 80.645 261.496 80.51 261.946 80.24C262.396 79.97 262.621 79.625 262.621 79.205C262.621 78.845 262.396 78.545 261.946 78.305C261.496 78.035 260.866 77.9 260.056 77.9ZM255.331 87.89C257.011 87.89 258.526 87.575 259.876 86.945C261.226 86.285 262.156 85.43 262.666 84.38V83.21C261.946 83.57 261.151 83.855 260.281 84.065C259.411 84.245 258.361 84.425 257.131 84.605L255.511 84.875C253.831 85.205 252.991 85.775 252.991 86.585C252.991 87.455 253.771 87.89 255.331 87.89Z" fill="white"/>
</svg>
