<svg width="213" height="103" viewBox="0 0 213 103" fill="none" xmlns="http://www.w3.org/2000/svg">
<path d="M45.47 52.235C42.2 53.885 38.885 54.155 35.525 53.045C31.955 51.905 28.88 49.475 26.3 45.755C24.92 43.775 23.735 41.48 22.745 38.87L21.305 35.045H10.685L8.3 40.715C8.15 41.105 8.075 41.42 8.075 41.66C8.075 41.9 8.12 42.17 8.21 42.47C8.33 42.74 8.555 42.995 8.885 43.235C9.245 43.445 9.635 43.55 10.055 43.55H10.415V44H0.785V43.55H1.19C1.88 43.55 2.555 43.355 3.215 42.965C3.905 42.545 4.475 41.93 4.925 41.12L14.96 18.215C13.79 15.575 12.545 13.76 11.225 12.77C10.115 11.93 9.05 11.51 8.03 11.51C7.04 11.51 6.11 11.66 5.24 11.96L5.15 11.51C7.31 10.4 9.38 9.845 11.36 9.845C13.82 9.845 16.025 10.805 17.975 12.725C19.895 14.615 21.59 17.345 23.06 20.915L29.585 37.025C32.045 43.115 34.565 47.3 37.145 49.58C38.195 50.51 39.275 51.155 40.385 51.515C41.495 51.875 42.425 52.055 43.175 52.055C43.955 52.055 44.705 51.965 45.425 51.785L45.47 52.235ZM11.45 33.11H20.63L17.48 24.785C17.33 24.365 17.12 23.795 16.85 23.075C16.58 22.325 16.4 21.8 16.31 21.5L11.45 33.11Z" fill="#FF5C00"/>
<path d="M42.0585 22.545C42.5252 22.545 43.0852 22.5683 43.7385 22.615C44.4152 22.6617 45.0802 22.72 45.7335 22.79C46.3868 22.8367 46.9585 22.9067 47.4485 23C47.9618 23.07 48.3119 23.14 48.4985 23.21L48.0435 27.48H47.7285C47.7285 26.4067 47.3552 25.555 46.6085 24.925C45.8618 24.295 44.7885 23.98 43.3885 23.98C42.2685 23.98 41.3585 24.225 40.6585 24.715C39.9818 25.205 39.6202 25.8583 39.5735 26.675C39.5268 27.095 39.5968 27.48 39.7835 27.83C39.9935 28.1567 40.2735 28.4483 40.6235 28.705C40.9968 28.9617 41.4052 29.2183 41.8485 29.475L47.3435 32.87C48.2768 33.3367 49.0118 34.0133 49.5485 34.9C50.0852 35.7867 50.3185 36.86 50.2485 38.12C50.1785 39.4267 49.7935 40.5583 49.0935 41.515C48.4168 42.4717 47.4718 43.2067 46.2585 43.72C45.0685 44.21 43.6568 44.455 42.0235 44.455C41.0202 44.455 40.0868 44.3733 39.2235 44.21C38.3602 44.0467 37.6135 43.825 36.9835 43.545C36.3768 43.265 35.9102 42.95 35.5835 42.6C35.3968 42.1333 35.3152 41.5733 35.3385 40.92C35.3618 40.2433 35.4668 39.5783 35.6535 38.925C35.8402 38.2483 36.0735 37.6883 36.3535 37.245H36.6335C36.5635 38.295 36.7502 39.2633 37.1935 40.15C37.6602 41.0367 38.3368 41.7483 39.2235 42.285C40.1102 42.7983 41.1718 43.055 42.4085 43.055C43.7618 43.055 44.7768 42.74 45.4535 42.11C46.1302 41.48 46.4685 40.745 46.4685 39.905C46.4685 39.275 46.2585 38.715 45.8385 38.225C45.4418 37.7117 44.7768 37.21 43.8435 36.72L38.8735 33.57C37.7068 32.9633 36.8552 32.1583 36.3185 31.155C35.8052 30.1517 35.6185 29.055 35.7585 27.865C35.8752 26.745 36.2018 25.7883 36.7385 24.995C37.2985 24.2017 38.0335 23.595 38.9435 23.175C39.8535 22.755 40.8918 22.545 42.0585 22.545ZM48.4985 22.86L48.4635 23.49H44.7185V22.86H48.4985ZM64.3511 23.105V44H59.2761V23.105H64.3511ZM71.9811 22.965V24.365H51.6811V22.965H71.9811ZM71.9811 24.26V27.97H71.5961V27.655C71.6194 26.6517 71.3394 25.8583 70.7561 25.275C70.1961 24.6917 69.4144 24.3883 68.4111 24.365V24.26H71.9811ZM71.9811 22.44V23.315L68.2711 22.965C68.7144 22.965 69.1927 22.9417 69.7061 22.895C70.2194 22.825 70.6861 22.755 71.1061 22.685C71.5261 22.5917 71.8177 22.51 71.9811 22.44ZM59.3461 41.795V44H57.0011V43.65C57.0011 43.65 57.0594 43.65 57.1761 43.65C57.3161 43.65 57.3861 43.65 57.3861 43.65C57.8994 43.65 58.3311 43.475 58.6811 43.125C59.0544 42.7517 59.2527 42.3083 59.2761 41.795H59.3461ZM64.2461 41.795H64.3511C64.3511 42.3083 64.5377 42.7517 64.9111 43.125C65.2844 43.475 65.7394 43.65 66.2761 43.65C66.2761 43.65 66.3344 43.65 66.4511 43.65C66.5911 43.65 66.6611 43.65 66.6611 43.65V44H64.2461V41.795ZM55.2511 24.26V24.365C54.2244 24.3883 53.4311 24.6917 52.8711 25.275C52.3344 25.8583 52.0661 26.6517 52.0661 27.655V27.97H51.6811V24.26H55.2511ZM51.6811 22.44C51.8911 22.4867 52.1944 22.5567 52.5911 22.65C53.0111 22.7433 53.4661 22.825 53.9561 22.895C54.4694 22.9417 54.9361 22.965 55.3561 22.965L51.6811 23.315V22.44ZM81.0258 23H84.8058C85.7625 23 86.6958 23.105 87.6058 23.315C88.5158 23.5017 89.3325 23.8167 90.0558 24.26C90.7792 24.68 91.3508 25.2633 91.7708 26.01C92.2142 26.7333 92.4358 27.6433 92.4358 28.74C92.4358 29.5567 92.2608 30.3733 91.9108 31.19C91.5842 31.9833 91.0592 32.6717 90.3358 33.255C89.6358 33.8383 88.7142 34.2233 87.5708 34.41C88.2475 34.62 88.8892 35.0283 89.4958 35.635C90.1258 36.2417 90.6158 36.8133 90.9658 37.35C91.0592 37.5367 91.2225 37.84 91.4558 38.26C91.6892 38.6567 91.9808 39.1233 92.3308 39.66C92.7042 40.1733 93.0892 40.71 93.4858 41.27C93.9525 41.9 94.3608 42.39 94.7108 42.74C95.0608 43.0667 95.4225 43.3 95.7958 43.44C96.1692 43.58 96.6008 43.65 97.0908 43.65V44H94.1508C92.8908 44 91.8175 43.9067 90.9308 43.72C90.0675 43.5333 89.3092 43.195 88.6558 42.705C88.0258 42.1917 87.4425 41.5033 86.9058 40.64C86.6958 40.3367 86.4742 39.975 86.2408 39.555C86.0075 39.1117 85.7742 38.6683 85.5408 38.225C85.3075 37.7817 85.0975 37.35 84.9108 36.93C84.7475 36.51 84.6308 36.16 84.5608 35.88C84.2575 35.1333 83.9075 34.5967 83.5108 34.27C83.1375 33.92 82.7875 33.745 82.4608 33.745V33.43C82.4608 33.43 82.5425 33.43 82.7058 33.43C82.8692 33.43 83.0792 33.43 83.3358 33.43C83.8258 33.43 84.3042 33.3483 84.7708 33.185C85.2608 32.9983 85.7042 32.66 86.1008 32.17C86.4975 31.6567 86.7892 30.91 86.9758 29.93C87.0225 29.79 87.0575 29.5917 87.0808 29.335C87.1275 29.0783 87.1392 28.7867 87.1158 28.46C87.0692 27.5967 86.9058 26.9083 86.6258 26.395C86.3692 25.8583 86.0425 25.4617 85.6458 25.205C85.2492 24.925 84.8408 24.7383 84.4208 24.645C84.0242 24.5283 83.6742 24.47 83.3708 24.47C82.9275 24.4467 82.5192 24.4467 82.1458 24.47C81.7958 24.47 81.5275 24.4583 81.3408 24.435C81.3175 24.435 81.2825 24.3183 81.2358 24.085C81.1892 23.8283 81.1425 23.5833 81.0958 23.35C81.0492 23.1167 81.0258 23 81.0258 23ZM81.3758 23V44H76.3008V23H81.3758ZM76.4058 41.795L76.5458 44H74.0258V43.65C74.0492 43.65 74.1075 43.65 74.2008 43.65C74.3175 43.65 74.3992 43.65 74.4458 43.65C74.9592 43.65 75.3908 43.475 75.7408 43.125C76.1142 42.7517 76.3125 42.3083 76.3358 41.795H76.4058ZM76.4058 25.17H76.3358C76.3125 24.6333 76.1142 24.2017 75.7408 23.875C75.3908 23.525 74.9708 23.35 74.4808 23.35C74.4108 23.35 74.3175 23.35 74.2008 23.35C74.1075 23.35 74.0492 23.35 74.0258 23.35V23H76.5458L76.4058 25.17ZM81.3058 41.795H81.3758C81.3758 42.3783 81.5742 42.8333 81.9708 43.16C82.3908 43.4867 82.8342 43.65 83.3008 43.65C83.3008 43.65 83.3475 43.65 83.4408 43.65C83.5342 43.65 83.6042 43.65 83.6508 43.65V44H81.1308L81.3058 41.795ZM108.627 22.545C110.494 22.545 112.185 22.8017 113.702 23.315C115.219 23.805 116.525 24.5283 117.622 25.485C118.719 26.4417 119.559 27.5967 120.142 28.95C120.749 30.3033 121.052 31.8317 121.052 33.535C121.052 35.215 120.749 36.7317 120.142 38.085C119.559 39.415 118.719 40.5583 117.622 41.515C116.525 42.4717 115.219 43.2067 113.702 43.72C112.185 44.21 110.494 44.455 108.627 44.455C106.784 44.455 105.104 44.21 103.587 43.72C102.07 43.2067 100.764 42.4717 99.6669 41.515C98.5702 40.5583 97.7302 39.415 97.1469 38.085C96.5635 36.7317 96.2719 35.215 96.2719 33.535C96.2719 31.8317 96.5635 30.3033 97.1469 28.95C97.7302 27.5967 98.5702 26.4417 99.6669 25.485C100.764 24.5283 102.07 23.805 103.587 23.315C105.104 22.8017 106.784 22.545 108.627 22.545ZM108.627 43.09C110.05 43.09 111.287 42.705 112.337 41.935C113.41 41.1417 114.227 40.0333 114.787 38.61C115.37 37.1867 115.662 35.495 115.662 33.535C115.662 31.5517 115.37 29.8483 114.787 28.425C114.227 26.9783 113.41 25.87 112.337 25.1C111.287 24.3067 110.05 23.91 108.627 23.91C107.227 23.91 106.002 24.3067 104.952 25.1C103.902 25.87 103.085 26.9783 102.502 28.425C101.919 29.8483 101.627 31.5517 101.627 33.535C101.627 35.495 101.919 37.1867 102.502 38.61C103.085 40.0333 103.902 41.1417 104.952 41.935C106.002 42.705 107.227 43.09 108.627 43.09Z" fill="white"/>
<path d="M87.315 54.455C87.825 54.455 88.755 54.455 90.105 54.455C91.455 54.455 93.96 54.47 97.62 54.5C102.93 54.56 107.13 56 110.22 58.82C113.31 61.61 114.855 65.435 114.855 70.295C114.855 75.125 113.31 78.95 110.22 81.77C107.13 84.59 102.93 86 97.62 86H81.285V85.55H81.87C82.62 85.55 83.265 85.295 83.805 84.785C84.375 84.245 84.69 83.6 84.75 82.85V56.525C81.39 56.765 78.9 57.545 77.28 58.865C76.47 59.495 75.84 60.14 75.39 60.8C74.91 61.46 74.445 62.255 73.995 63.185L73.545 63.005C74.265 60.005 75.765 57.845 78.045 56.525C80.355 55.175 83.445 54.485 87.315 54.455ZM97.08 84.11C100.29 84.11 102.825 82.865 104.685 80.375C106.575 77.885 107.52 74.51 107.52 70.25C107.52 65.99 106.575 62.63 104.685 60.17C102.825 57.71 100.32 56.48 97.17 56.48C97.14 56.48 97.11 56.48 97.08 56.48H91.5V84.11H97.08Z" fill="#FF5C00"/>
<path d="M139.589 65V86H134.584V65H139.589ZM125.344 65V86H120.304V65H125.344ZM134.864 74.835V76.235H125.029V74.835H134.864ZM120.409 83.795V86H117.994V85.65C117.994 85.65 118.052 85.65 118.169 85.65C118.309 85.65 118.39 85.65 118.414 85.65C118.927 85.65 119.37 85.475 119.744 85.125C120.117 84.7517 120.304 84.3083 120.304 83.795H120.409ZM125.274 83.795H125.344C125.367 84.3083 125.565 84.7517 125.939 85.125C126.312 85.475 126.755 85.65 127.269 85.65C127.269 85.65 127.327 85.65 127.444 85.65C127.584 85.65 127.654 85.65 127.654 85.65V86H125.274V83.795ZM125.274 67.205V65H127.654V65.35C127.654 65.35 127.584 65.35 127.444 65.35C127.327 65.35 127.269 65.35 127.269 65.35C126.755 65.35 126.312 65.525 125.939 65.875C125.565 66.225 125.367 66.6683 125.344 67.205H125.274ZM120.409 67.205H120.304C120.304 66.6683 120.117 66.225 119.744 65.875C119.37 65.525 118.927 65.35 118.414 65.35C118.39 65.35 118.309 65.35 118.169 65.35C118.052 65.35 117.994 65.35 117.994 65.35V65H120.409V67.205ZM134.654 83.795V86H132.274V85.65C132.274 85.65 132.332 85.65 132.449 85.65C132.589 85.65 132.659 85.65 132.659 85.65C133.172 85.65 133.615 85.475 133.989 85.125C134.362 84.7517 134.549 84.3083 134.549 83.795H134.654ZM139.484 83.795H139.589C139.612 84.3083 139.799 84.7517 140.149 85.125C140.522 85.475 140.977 85.65 141.514 85.65C141.514 85.65 141.572 85.65 141.689 85.65C141.829 85.65 141.899 85.65 141.899 85.65V86H139.484V83.795ZM139.519 67.205V65H141.934V65.35C141.934 65.35 141.864 65.35 141.724 65.35C141.584 65.35 141.514 65.35 141.514 65.35C140.977 65.35 140.522 65.525 140.149 65.875C139.799 66.225 139.624 66.6683 139.624 67.205H139.519ZM134.654 67.205H134.549C134.549 66.6683 134.362 66.225 133.989 65.875C133.615 65.525 133.172 65.35 132.659 65.35C132.659 65.35 132.589 65.35 132.449 65.35C132.332 65.35 132.274 65.35 132.274 65.35V65H134.654V67.205ZM154.253 64.055L164.613 85.825H158.698L152.188 70.46L154.253 64.055ZM147.673 83.69C147.416 84.32 147.451 84.81 147.778 85.16C148.105 85.4867 148.466 85.65 148.863 85.65H149.143V86H142.143V85.65C142.143 85.65 142.19 85.65 142.283 85.65C142.376 85.65 142.423 85.65 142.423 85.65C142.89 85.65 143.38 85.51 143.893 85.23C144.406 84.9267 144.826 84.4133 145.153 83.69H147.673ZM154.253 64.055L154.323 68.255L146.728 85.895H144.138L152.328 68.29C152.375 68.15 152.48 67.905 152.643 67.555C152.806 67.1817 152.981 66.7733 153.168 66.33C153.355 65.8633 153.53 65.4317 153.693 65.035C153.856 64.615 153.95 64.2883 153.973 64.055H154.253ZM157.298 79.14V80.505H148.373V79.14H157.298ZM157.823 83.69H163.598C163.948 84.4133 164.38 84.9267 164.893 85.23C165.406 85.51 165.896 85.65 166.363 85.65C166.363 85.65 166.41 85.65 166.503 85.65C166.596 85.65 166.643 85.65 166.643 85.65V86H156.353V85.65H156.633C157.03 85.65 157.391 85.4867 157.718 85.16C158.045 84.81 158.08 84.32 157.823 83.69ZM174.047 65H177.827C178.784 65 179.717 65.105 180.627 65.315C181.537 65.5017 182.354 65.8167 183.077 66.26C183.801 66.68 184.372 67.2633 184.792 68.01C185.236 68.7333 185.457 69.6433 185.457 70.74C185.457 71.5567 185.282 72.3733 184.932 73.19C184.606 73.9833 184.081 74.6717 183.357 75.255C182.657 75.8383 181.736 76.2233 180.592 76.41C181.269 76.62 181.911 77.0283 182.517 77.635C183.147 78.2417 183.637 78.8133 183.987 79.35C184.081 79.5367 184.244 79.84 184.477 80.26C184.711 80.6567 185.002 81.1233 185.352 81.66C185.726 82.1733 186.111 82.71 186.507 83.27C186.974 83.9 187.382 84.39 187.732 84.74C188.082 85.0667 188.444 85.3 188.817 85.44C189.191 85.58 189.622 85.65 190.112 85.65V86H187.172C185.912 86 184.839 85.9067 183.952 85.72C183.089 85.5333 182.331 85.195 181.677 84.705C181.047 84.1917 180.464 83.5033 179.927 82.64C179.717 82.3367 179.496 81.975 179.262 81.555C179.029 81.1117 178.796 80.6683 178.562 80.225C178.329 79.7817 178.119 79.35 177.932 78.93C177.769 78.51 177.652 78.16 177.582 77.88C177.279 77.1333 176.929 76.5967 176.532 76.27C176.159 75.92 175.809 75.745 175.482 75.745V75.43C175.482 75.43 175.564 75.43 175.727 75.43C175.891 75.43 176.101 75.43 176.357 75.43C176.847 75.43 177.326 75.3483 177.792 75.185C178.282 74.9983 178.726 74.66 179.122 74.17C179.519 73.6567 179.811 72.91 179.997 71.93C180.044 71.79 180.079 71.5917 180.102 71.335C180.149 71.0783 180.161 70.7867 180.137 70.46C180.091 69.5967 179.927 68.9083 179.647 68.395C179.391 67.8583 179.064 67.4617 178.667 67.205C178.271 66.925 177.862 66.7383 177.442 66.645C177.046 66.5283 176.696 66.47 176.392 66.47C175.949 66.4467 175.541 66.4467 175.167 66.47C174.817 66.47 174.549 66.4583 174.362 66.435C174.339 66.435 174.304 66.3183 174.257 66.085C174.211 65.8283 174.164 65.5833 174.117 65.35C174.071 65.1167 174.047 65 174.047 65ZM174.397 65V86H169.322V65H174.397ZM169.427 83.795L169.567 86H167.047V85.65C167.071 85.65 167.129 85.65 167.222 85.65C167.339 85.65 167.421 85.65 167.467 85.65C167.981 85.65 168.412 85.475 168.762 85.125C169.136 84.7517 169.334 84.3083 169.357 83.795H169.427ZM169.427 67.17H169.357C169.334 66.6333 169.136 66.2017 168.762 65.875C168.412 65.525 167.992 65.35 167.502 65.35C167.432 65.35 167.339 65.35 167.222 65.35C167.129 65.35 167.071 65.35 167.047 65.35V65H169.567L169.427 67.17ZM174.327 83.795H174.397C174.397 84.3783 174.596 84.8333 174.992 85.16C175.412 85.4867 175.856 85.65 176.322 85.65C176.322 85.65 176.369 85.65 176.462 85.65C176.556 85.65 176.626 85.65 176.672 85.65V86H174.152L174.327 83.795ZM200.464 64.055L210.824 85.825H204.909L198.399 70.46L200.464 64.055ZM193.884 83.69C193.627 84.32 193.662 84.81 193.989 85.16C194.315 85.4867 194.677 85.65 195.074 85.65H195.354V86H188.354V85.65C188.354 85.65 188.4 85.65 188.494 85.65C188.587 85.65 188.634 85.65 188.634 85.65C189.1 85.65 189.59 85.51 190.104 85.23C190.617 84.9267 191.037 84.4133 191.364 83.69H193.884ZM200.464 64.055L200.534 68.255L192.939 85.895H190.349L198.539 68.29C198.585 68.15 198.69 67.905 198.854 67.555C199.017 67.1817 199.192 66.7733 199.379 66.33C199.565 65.8633 199.74 65.4317 199.904 65.035C200.067 64.615 200.16 64.2883 200.184 64.055H200.464ZM203.509 79.14V80.505H194.584V79.14H203.509ZM204.034 83.69H209.809C210.159 84.4133 210.59 84.9267 211.104 85.23C211.617 85.51 212.107 85.65 212.574 85.65C212.574 85.65 212.62 85.65 212.714 85.65C212.807 85.65 212.854 85.65 212.854 85.65V86H202.564V85.65H202.844C203.24 85.65 203.602 85.4867 203.929 85.16C204.255 84.81 204.29 84.32 204.034 83.69Z" fill="white"/>
</svg>
