<svg width="25" height="25" viewBox="0 0 25 25" fill="none" xmlns="http://www.w3.org/2000/svg">
<path d="M10.0302 13.5558C9.63967 13.9463 9.63967 14.5794 10.0302 14.97C10.4207 15.3605 11.0539 15.3605 11.4444 14.97L10.0302 13.5558ZM16.4925 9.92189C16.883 9.53137 16.883 8.8982 16.4925 8.50768C16.102 8.11715 15.4688 8.11715 15.0783 8.50768L16.4925 9.92189ZM11.4444 14.97L16.4925 9.92189L15.0783 8.50768L10.0302 13.5558L11.4444 14.97Z" fill="white"/>
<path d="M14.3019 21.6329L13.4075 22.0801L14.3019 21.6329ZM16.2292 21.4733L15.2734 21.1793L16.2292 21.4733ZM10.3464 14.1876L9.89915 15.082L10.3464 14.1876ZM10.8122 14.6534L11.7066 14.2062L10.8122 14.6534ZM3.52647 8.7706L3.82055 9.72638L3.52647 8.7706ZM3.36696 10.6979L2.91975 11.5923L3.36696 10.6979ZM19.9943 3.70358L20.2884 4.65935L19.9943 3.70358ZM21.2962 5.00552L22.252 5.2996L21.2962 5.00552ZM19.7002 2.7478L3.23238 7.81482L3.82055 9.72638L20.2884 4.65935L19.7002 2.7478ZM2.91975 11.5923L9.89915 15.082L10.7936 13.2932L3.81418 9.80347L2.91975 11.5923ZM9.91779 15.1007L13.4075 22.0801L15.1963 21.1856L11.7066 14.2062L9.91779 15.1007ZM17.185 21.7674L22.252 5.2996L20.3405 4.71143L15.2734 21.1793L17.185 21.7674ZM13.4075 22.0801C14.2312 23.7275 16.6433 23.5279 17.185 21.7674L15.2734 21.1793C15.2691 21.1934 15.2652 21.1989 15.2648 21.1994C15.2643 21.2002 15.2642 21.2002 15.2639 21.2005C15.2624 21.2016 15.2535 21.2072 15.2371 21.2085C15.2206 21.2099 15.2109 21.2059 15.2092 21.205C15.2089 21.2048 15.2088 21.2048 15.2081 21.2041C15.2077 21.2037 15.203 21.1989 15.1963 21.1856L13.4075 22.0801ZM9.89915 15.082C9.90722 15.0861 9.91376 15.0926 9.91779 15.1007L11.7066 14.2062C11.5091 13.8111 11.1887 13.4907 10.7936 13.2932L9.89915 15.082ZM3.23238 7.81482C1.47192 8.3565 1.2723 10.7686 2.91975 11.5923L3.81418 9.80347C3.8009 9.79684 3.79616 9.79211 3.79571 9.79167C3.79504 9.79102 3.79503 9.79093 3.79484 9.79058C3.79394 9.78888 3.78992 9.77922 3.79128 9.76276C3.79265 9.74631 3.7982 9.73744 3.79936 9.73592C3.79961 9.7356 3.79964 9.73551 3.8004 9.73498C3.80091 9.73462 3.80637 9.73074 3.82055 9.72638L3.23238 7.81482ZM20.2884 4.65935C20.2985 4.65624 20.3039 4.65603 20.3054 4.65601C20.3071 4.65598 20.3083 4.65615 20.3097 4.65652C20.3131 4.65743 20.3212 4.66083 20.3301 4.66972C20.339 4.6786 20.3424 4.68675 20.3433 4.69014C20.3437 4.6915 20.3438 4.69269 20.3438 4.69443C20.3438 4.69593 20.3436 4.7013 20.3405 4.71143L22.252 5.2996C22.734 3.73308 21.2667 2.26579 19.7002 2.7478L20.2884 4.65935Z" fill="white"/>
</svg>
