<svg width="45" height="45" viewBox="0 0 45 45" fill="none" xmlns="http://www.w3.org/2000/svg">
<path d="M22.5 20.625C24.5711 20.625 26.25 18.9461 26.25 16.875C26.25 14.8039 24.5711 13.125 22.5 13.125C20.4289 13.125 18.75 14.8039 18.75 16.875C18.75 18.9461 20.4289 20.625 22.5 20.625Z" stroke="white" stroke-width="4" stroke-linecap="round" stroke-linejoin="round"/>
<path d="M22.5 39.375C22.5 39.375 35.625 30.2885 35.625 18.6058C35.625 15.1631 34.2422 11.8613 31.7808 9.42698C29.3194 6.99261 25.981 5.625 22.5 5.625C19.019 5.625 15.6806 6.99261 13.2192 9.42698C10.7578 11.8613 9.375 15.1631 9.375 18.6058C9.375 30.2885 22.5 39.375 22.5 39.375Z" stroke="white" stroke-width="4" stroke-linecap="round" stroke-linejoin="round"/>
</svg>
