<svg width="45" height="22" viewBox="0 0 45 22" fill="none" xmlns="http://www.w3.org/2000/svg">
<path d="M13.093 5.313H4.669V9.039C5.029 8.643 5.533 8.319 6.181 8.067C6.829 7.815 7.531 7.689 8.287 7.689C9.637 7.689 10.753 7.995 11.635 8.607C12.535 9.219 13.192 10.011 13.606 10.983C14.02 11.955 14.227 13.008 14.227 14.142C14.227 16.248 13.633 17.922 12.445 19.164C11.257 20.388 9.583 21 7.423 21C5.983 21 4.732 20.757 3.67 20.271C2.608 19.767 1.789 19.074 1.213 18.192C0.637 17.31 0.322 16.293 0.268 15.141H4.777C4.885 15.699 5.146 16.167 5.56 16.545C5.974 16.905 6.541 17.085 7.261 17.085C8.107 17.085 8.737 16.815 9.151 16.275C9.565 15.735 9.772 15.015 9.772 14.115C9.772 13.233 9.556 12.558 9.124 12.09C8.692 11.622 8.062 11.388 7.234 11.388C6.622 11.388 6.118 11.541 5.722 11.847C5.326 12.135 5.065 12.522 4.939 13.008H0.484V1.263H13.093V5.313ZM22.0945 21.216C21.2845 21.216 20.6185 20.982 20.0965 20.514C19.5925 20.028 19.3405 19.434 19.3405 18.732C19.3405 18.012 19.5925 17.409 20.0965 16.923C20.6185 16.437 21.2845 16.194 22.0945 16.194C22.8865 16.194 23.5345 16.437 24.0385 16.923C24.5605 17.409 24.8215 18.012 24.8215 18.732C24.8215 19.434 24.5605 20.028 24.0385 20.514C23.5345 20.982 22.8865 21.216 22.0945 21.216ZM29.7957 10.875C29.7957 7.779 30.3897 5.34 31.5777 3.558C32.7837 1.776 34.7187 0.884998 37.3827 0.884998C40.0467 0.884998 41.9727 1.776 43.1607 3.558C44.3667 5.34 44.9697 7.779 44.9697 10.875C44.9697 14.007 44.3667 16.464 43.1607 18.246C41.9727 20.028 40.0467 20.919 37.3827 20.919C34.7187 20.919 32.7837 20.028 31.5777 18.246C30.3897 16.464 29.7957 14.007 29.7957 10.875ZM40.4337 10.875C40.4337 9.057 40.2357 7.662 39.8397 6.69C39.4437 5.7 38.6247 5.205 37.3827 5.205C36.1407 5.205 35.3217 5.7 34.9257 6.69C34.5297 7.662 34.3317 9.057 34.3317 10.875C34.3317 12.099 34.4037 13.116 34.5477 13.926C34.6917 14.718 34.9797 15.366 35.4117 15.87C35.8617 16.356 36.5187 16.599 37.3827 16.599C38.2467 16.599 38.8947 16.356 39.3267 15.87C39.7767 15.366 40.0737 14.718 40.2177 13.926C40.3617 13.116 40.4337 12.099 40.4337 10.875Z" fill="white"/>
</svg>
