<svg width="52" height="55" viewBox="0 0 52 55" fill="none" xmlns="http://www.w3.org/2000/svg">
<path d="M32.4699 19.4203L26.9834 6.83924C26.5962 5.95137 25.4031 5.95137 25.0159 6.83925L19.5294 19.4203C19.3715 19.7822 19.0473 20.0313 18.6732 20.0782L5.66511 21.7095C4.7471 21.8246 4.37842 23.0248 5.05713 23.6886L14.6743 33.0954C14.9509 33.366 15.0748 33.7691 15.0014 34.16L12.4485 47.7493C12.2683 48.7083 13.2335 49.45 14.0402 48.9724L25.4705 42.2051C25.7992 42.0104 26.2 42.0104 26.5288 42.2051L37.9591 48.9724C38.7657 49.45 39.7309 48.7083 39.5508 47.7493L36.9979 34.16C36.9245 33.7691 37.0483 33.366 37.3249 33.0954L46.9421 23.6886C47.6208 23.0248 47.2522 21.8246 46.3341 21.7095L33.3261 20.0782C32.9519 20.0313 32.6277 19.7822 32.4699 19.4203Z" fill="#FF5C00"/>
</svg>
