<svg width="43" height="34" viewBox="0 0 43 34" fill="none" xmlns="http://www.w3.org/2000/svg">
<path fill-rule="evenodd" clip-rule="evenodd" d="M11.6856 0.0196949C10.5725 0.147527 9.55507 0.495567 8.56734 1.08634C4.63694 3.43721 1.49023 9.48603 0.399912 16.7864C0.202128 18.1107 0.0921878 19.2449 0.0242257 20.6619C-0.0232128 21.6512 0.00232109 23.6361 0.0720817 24.3791C0.361884 27.4659 1.17357 29.8132 2.52947 31.4857C3.31968 32.4604 4.20013 33.1234 5.25836 33.5407C6.08258 33.8657 6.82621 34.0001 7.79933 34C9.66565 33.9998 11.0316 33.4349 12.4763 32.066C13.151 31.4267 14.1817 30.1155 14.9406 28.9309C16.2862 26.8304 17.1582 25.1496 19.9543 19.2668L21.4933 16.0289L21.8277 16.6849C22.2616 17.5362 23.8089 20.6107 24.7471 22.4857C27.0922 27.1724 28.4533 29.4588 29.9177 31.1715C31.3751 32.8759 32.7302 33.6924 34.517 33.9429C34.9952 34.0099 35.9793 34.0186 36.4334 33.9598C37.6694 33.7999 38.7765 33.297 39.69 32.4805C39.9981 32.2051 40.572 31.5423 40.826 31.1685C41.8686 29.6341 42.5699 27.4339 42.8375 24.8572C43.0404 22.9038 43.0166 20.4436 42.7722 18.0869C42.0651 11.2709 39.5661 5.32467 36.1071 2.22777C34.0321 0.369876 31.6643 -0.362579 29.4519 0.168948C27.1288 0.727058 24.8705 2.79062 22.4638 6.55445C22.2889 6.82794 22.1282 7.07481 22.1067 7.103C22.075 7.14466 22.0006 7.05557 21.7111 6.62919C18.5597 1.98836 15.7171 -0.0335875 12.3924 0.00064653C12.0655 0.00401256 11.7475 0.0125804 11.6856 0.0196949ZM31.5347 4.4879C32.6581 4.78599 33.6786 5.51821 34.6693 6.73706C35.3393 7.56139 35.8712 8.42887 36.3868 9.53798C37.7543 12.4797 38.5488 15.9551 38.831 20.2289C38.8935 21.1762 38.8841 23.5432 38.8154 24.1496C38.5352 26.6218 37.7631 27.9887 36.4233 28.3846C36.0442 28.4966 35.3309 28.5043 34.9552 28.4003C33.96 28.1249 33.2595 27.427 32.071 25.5266C31.208 24.1468 29.3662 20.6951 27.2948 16.576C25.7204 13.445 25.1903 12.4283 24.3969 11.0171L24.1747 10.622L24.5426 9.96519C26.4168 6.61917 28.03 4.90311 29.7064 4.47226C29.9685 4.40486 30.0951 4.39641 30.6514 4.40922C31.0932 4.41936 31.369 4.44395 31.5347 4.4879ZM13.0025 5.6216C14.2613 5.82972 15.3339 6.55774 16.6013 8.06446C17.352 8.9568 18.0725 9.99293 18.9319 11.4158L19.2941 12.0154L19.1883 12.2111C19.1301 12.3187 18.7167 13.078 18.2696 13.8985C17.1785 15.9008 16.2117 17.693 15.1539 19.6743C14.0142 21.8091 13.7158 22.3521 13.0727 23.4611C11.2374 26.6263 10.15 27.9156 8.97739 28.3167C8.0846 28.6221 7.16625 28.5095 6.44526 28.0063C6.17755 27.8194 5.7375 27.306 5.53609 26.9455C5.09299 26.1524 4.80505 25.0775 4.67956 23.748C4.62756 23.1971 4.62779 21.3724 4.67998 20.5923C5.03967 15.2138 6.59756 10.3163 8.80909 7.61177C9.83568 6.35635 10.7878 5.73452 11.9426 5.56526C12.1023 5.54185 12.7179 5.57459 13.0025 5.6216Z" fill="white"/>
<path d="M26.0947 14.2284C20.6517 3.6918 17.0275 0 12.3519 0L12.293 5.53601C15.3543 5.53601 17.7281 8.40919 22.8903 18.7567L23.205 19.3867L26.0947 14.2284Z" fill="white"/>
</svg>
