<svg width="30" height="30" viewBox="0 0 30 30" fill="none" xmlns="http://www.w3.org/2000/svg">
<path d="M11.8786 5.32152L10.718 5.78576L11.8786 5.32152ZM13.1964 8.6161L14.357 8.15186V8.15186L13.1964 8.6161ZM12.7958 11.145L13.7561 11.9453V11.9453L12.7958 11.145ZM12.0866 11.9961L13.0468 12.7964L12.0866 11.9961ZM12.2394 15.3644L11.3555 16.2482L12.2394 15.3644ZM14.6357 17.7607L15.5195 16.8768L14.6357 17.7607ZM18.0039 17.9134L17.2036 16.9532L17.2036 16.9532L18.0039 17.9134ZM18.855 17.2042L19.6552 18.1645L19.6552 18.1645L18.855 17.2042ZM21.3839 16.8036L20.9197 17.9642L21.3839 16.8036ZM24.6785 18.1214L25.1427 16.9608L24.6785 18.1214ZM6.11842 5H9.55742V2.5H6.11842V5ZM10.718 5.78576L12.0358 9.08034L14.357 8.15186L13.0392 4.85728L10.718 5.78576ZM11.8355 10.3448L11.1263 11.1959L13.0468 12.7964L13.7561 11.9453L11.8355 10.3448ZM11.3555 16.2482L13.7518 18.6445L15.5195 16.8768L13.1232 14.4805L11.3555 16.2482ZM18.8041 18.8737L19.6552 18.1645L18.0547 16.2439L17.2036 16.9532L18.8041 18.8737ZM20.9197 17.9642L24.2142 19.282L25.1427 16.9608L21.8481 15.643L20.9197 17.9642ZM25 20.4426V23.8816H27.5V20.4426H25ZM23.8816 25C13.4536 25 5 16.5464 5 6.11842H2.5C2.5 17.9271 12.0729 27.5 23.8816 27.5V25ZM25 23.8816C25 24.4993 24.4993 25 23.8816 25V27.5C25.88 27.5 27.5 25.88 27.5 23.8816H25ZM24.2142 19.282C24.6888 19.4718 25 19.9315 25 20.4426H27.5C27.5 18.9092 26.5664 17.5303 25.1427 16.9608L24.2142 19.282ZM19.6552 18.1645C20.0079 17.8705 20.4934 17.7936 20.9197 17.9642L21.8481 15.643C20.5693 15.1314 19.1129 15.3621 18.0547 16.2439L19.6552 18.1645ZM13.7518 18.6445C15.1232 20.016 17.3141 20.1154 18.8041 18.8737L17.2036 16.9532C16.707 17.367 15.9767 17.3339 15.5195 16.8768L13.7518 18.6445ZM11.1263 11.1959C9.88464 12.6859 9.98403 14.8768 11.3555 16.2482L13.1232 14.4805C12.6661 14.0233 12.633 13.293 13.0468 12.7964L11.1263 11.1959ZM12.0358 9.08034C12.2064 9.50663 12.1295 9.99209 11.8355 10.3448L13.7561 11.9453C14.6379 10.8871 14.8686 9.43074 14.357 8.15186L12.0358 9.08034ZM9.55742 5C10.0685 5 10.5282 5.31119 10.718 5.78576L13.0392 4.85729C12.4697 3.43357 11.0908 2.5 9.55742 2.5V5ZM6.11842 2.5C4.12002 2.5 2.5 4.12002 2.5 6.11842H5C5 5.50073 5.50073 5 6.11842 5V2.5Z" fill="#132540"/>
</svg>
